<svg width="458" height="500" viewBox="0 0 458 500" fill="none" xmlns="http://www.w3.org/2000/svg">
<path d="M37.651 201.043C37.6521 201.7 37.5238 202.35 37.2735 202.957C37.0232 203.564 36.6558 204.116 36.1922 204.581C35.7287 205.046 35.1781 205.415 34.5718 205.667C33.9656 205.92 33.3156 206.05 32.659 206.051L5.11503 206.097H5.10703C3.78094 206.098 2.50876 205.572 1.57032 204.635C0.631892 203.698 0.10409 202.427 0.103029 201.101C0.101968 199.775 0.627735 198.503 1.56467 197.564C2.5016 196.626 3.77294 196.098 5.09903 196.097L32.643 196.051H32.651C33.9757 196.051 35.2463 196.577 36.1837 197.513C37.1212 198.449 37.6489 199.718 37.651 201.043ZM86.045 97.513C86.5135 98.0325 87.0859 98.4476 87.7253 98.7313C88.3646 99.0151 89.0565 99.1611 89.756 99.16C90.7232 99.1593 91.6695 98.8783 92.4801 98.3508C93.2908 97.8233 93.9311 97.0721 94.3236 96.1881C94.716 95.3041 94.8436 94.3253 94.6911 93.3702C94.5385 92.4151 94.1123 91.5248 93.464 90.807L77.199 72.81C76.3084 71.8319 75.0664 71.2467 73.7452 71.1824C72.4239 71.1181 71.131 71.58 70.1496 72.4669C69.1682 73.3539 68.5783 74.5936 68.509 75.9146C68.4397 77.2356 68.8968 78.5303 69.78 79.515L86.045 97.513ZM201.817 63.554C203.143 63.554 204.415 63.0272 205.353 62.0895C206.29 61.1518 206.817 59.8801 206.817 58.554V34.474C206.817 33.1479 206.29 31.8761 205.353 30.9385C204.415 30.0008 203.143 29.474 201.817 29.474C200.491 29.474 199.219 30.0008 198.281 30.9385C197.344 31.8761 196.817 33.1479 196.817 34.474V58.554C196.817 59.8801 197.344 61.1518 198.281 62.0895C199.219 63.0272 200.491 63.554 201.817 63.554ZM457.893 92.563V127.545C457.893 128.703 457.491 129.825 456.755 130.72C456.02 131.615 454.996 132.226 453.86 132.45L435.361 136.097L428.136 153.514L438.644 169.183C439.289 170.145 439.58 171.301 439.468 172.454C439.355 173.606 438.846 174.684 438.027 175.503L413.291 200.239C412.472 201.058 411.394 201.567 410.242 201.679C409.089 201.792 407.933 201.501 406.971 200.856L391.302 190.348L373.885 197.573L370.237 216.072C370.013 217.208 369.402 218.232 368.507 218.967C367.612 219.703 366.49 220.105 365.332 220.105H344.152C343.342 267.823 323.101 296.093 305.188 321.083C289.328 343.21 275.63 362.32 275.63 391.471V438.983C275.63 455.046 262.562 468.114 246.498 468.114H243.742V476.531C243.742 489.471 233.214 500 220.273 500H183.866C170.925 500 160.397 489.472 160.397 476.531V468.114H157.641C141.578 468.114 128.509 455.046 128.509 438.983V391.471C128.509 362.32 114.811 343.21 98.951 321.083C80.669 295.579 59.949 266.671 59.949 217.146C59.949 177.621 75.418 144.411 104.684 121.106C130.435 100.601 165.02 89.308 202.069 89.308C214.07 89.3015 226.04 90.5357 237.788 92.991V92.561C237.788 91.4028 238.19 90.2805 238.926 89.3859C239.661 88.4913 240.685 87.8798 241.821 87.656L260.32 84.008L267.545 66.591L257.037 50.922C256.392 49.96 256.101 48.8041 256.214 47.6515C256.326 46.4989 256.835 45.4211 257.654 44.602L282.39 19.866C283.209 19.0471 284.287 18.538 285.44 18.4254C286.592 18.3129 287.748 18.604 288.71 19.249L304.379 29.757L321.796 22.532L325.444 4.033C325.668 2.89671 326.28 1.87342 327.174 1.13787C328.069 0.402324 329.191 0.000138971 330.349 0H365.33C366.488 0.000138971 367.61 0.402324 368.505 1.13787C369.4 1.87342 370.011 2.89671 370.235 4.033L373.883 22.532L391.3 29.757L406.969 19.249C407.931 18.604 409.087 18.3129 410.24 18.4254C411.392 18.538 412.47 19.0471 413.289 19.866L438.025 44.602C438.844 45.421 439.353 46.4988 439.466 47.6515C439.578 48.8041 439.287 49.9601 438.642 50.922L428.134 66.591L435.359 84.008L453.858 87.656C454.994 87.88 456.018 88.4915 456.753 89.3861C457.489 90.2807 457.891 91.4028 457.891 92.561L457.893 92.563ZM138.509 423.41H265.63V398.703H138.509V423.41ZM184.686 300.461V388.703H219.452V300.461C219.452 298.726 219.466 297.007 219.496 295.309C213.884 296.416 208.052 296.991 202.069 296.991C196.086 296.991 190.254 296.416 184.642 295.309C184.672 297.008 184.686 298.726 184.686 300.461ZM233.742 468.115H170.397V476.532C170.397 483.959 176.439 490.001 183.866 490.001H220.273C227.7 490.001 233.742 483.959 233.742 476.532V468.115ZM265.63 438.984V433.41H138.509V438.984C138.509 449.533 147.092 458.115 157.641 458.115H246.498C257.047 458.115 265.63 449.533 265.63 438.984ZM334.153 220.107H330.35C329.192 220.107 328.07 219.705 327.175 218.969C326.28 218.234 325.669 217.21 325.445 216.074L321.797 197.575L304.38 190.35L288.711 200.858C287.749 201.503 286.593 201.794 285.441 201.681C284.288 201.569 283.21 201.06 282.391 200.241L257.655 175.505C256.836 174.686 256.327 173.608 256.215 172.456C256.102 171.303 256.393 170.147 257.038 169.185L267.546 153.516L260.321 136.098L241.822 132.451C240.686 132.227 239.662 131.616 238.927 130.721C238.191 129.826 237.789 128.704 237.789 127.546V103.225C226.205 100.635 214.211 99.311 202.07 99.311C138.437 99.311 69.949 136.186 69.949 217.148C69.949 263.46 88.824 289.793 107.079 315.259C122.777 337.159 137.626 357.881 138.469 388.704H174.686V300.462C174.686 297.796 174.651 295.205 174.582 292.68C154.437 286.063 138.068 272.156 129.234 253.216C119.81 233.011 119.446 215.37 128.259 206.027C133.388 200.589 140.993 199.148 148.602 202.17C158.295 206.021 167.118 216.483 173.445 231.631C179.476 246.069 183.103 263.972 184.27 285.002C189.952 286.31 195.917 286.993 202.068 286.993C208.219 286.993 214.184 286.31 219.866 285.002C221.033 263.973 224.66 246.07 230.691 231.632C237.018 216.484 245.841 206.021 255.534 202.171C263.142 199.149 270.748 200.591 275.877 206.028C284.691 215.371 284.327 233.012 274.902 253.217C266.069 272.157 249.699 286.065 229.555 292.681C229.485 295.274 229.45 297.869 229.45 300.463V388.705H265.669C266.512 357.882 281.361 337.16 297.059 315.26C314.919 290.343 333.363 264.584 334.151 220.108L334.153 220.107ZM265.842 248.989C274.257 230.947 273.293 217.858 268.605 212.888C266.996 211.182 265.122 210.601 263.318 210.601C261.848 210.601 260.424 210.986 259.228 211.462C249.373 215.377 233.437 234.611 230.084 281.861C245.956 275.683 258.744 264.207 265.842 248.988V248.989ZM144.911 211.463C143.714 210.988 142.29 210.602 140.821 210.602C139.017 210.602 137.144 211.182 135.534 212.889C130.846 217.858 129.883 230.949 138.297 248.99C145.395 264.209 158.184 275.684 174.055 281.863C170.701 234.614 154.766 215.378 144.911 211.463ZM447.893 96.673L430.801 93.302C429.993 93.1428 429.238 92.7867 428.601 92.2653C427.964 91.7438 427.466 91.0732 427.15 90.313L417.873 67.949C417.557 67.1878 417.434 66.3602 417.515 65.54C417.597 64.7197 417.88 63.9324 418.339 63.248L428.05 48.767L409.127 29.844L394.646 39.555C393.962 40.014 393.174 40.2967 392.354 40.3778C391.534 40.4589 390.707 40.336 389.946 40.02L367.582 30.743C366.822 30.4276 366.151 29.9293 365.629 29.2924C365.108 28.6555 364.751 27.8997 364.592 27.092L361.221 10H334.46L331.089 27.092C330.93 27.8997 330.573 28.6555 330.052 29.2924C329.53 29.9293 328.859 30.4276 328.099 30.743L305.735 40.02C304.974 40.3356 304.147 40.4583 303.327 40.3771C302.507 40.296 301.72 40.0136 301.035 39.555L286.554 29.844L267.631 48.767L277.342 63.248C277.801 63.9323 278.084 64.7196 278.165 65.5396C278.246 66.3596 278.123 67.187 277.807 67.948L268.53 90.312C268.215 91.0724 267.716 91.7431 267.079 92.2647C266.442 92.7863 265.687 93.1426 264.879 93.302L247.787 96.673V123.434L264.879 126.804C265.687 126.963 266.443 127.32 267.079 127.841C267.716 128.363 268.215 129.034 268.53 129.794L277.807 152.159C278.123 152.92 278.246 153.747 278.165 154.567C278.084 155.387 277.801 156.175 277.342 156.859L267.631 171.34L286.554 190.263L301.035 180.552C301.719 180.093 302.507 179.81 303.327 179.729C304.147 179.648 304.974 179.771 305.735 180.087L328.099 189.364C328.859 189.679 329.53 190.178 330.052 190.815C330.573 191.452 330.93 192.207 331.089 193.015L334.46 210.107H361.221L364.592 193.015C364.751 192.207 365.107 191.451 365.629 190.814C366.151 190.177 366.821 189.679 367.582 189.364L389.946 180.087C390.707 179.771 391.534 179.648 392.354 179.729C393.174 179.81 393.962 180.093 394.646 180.552L409.127 190.263L428.05 171.34L418.339 156.859C417.88 156.175 417.597 155.387 417.516 154.567C417.435 153.747 417.557 152.919 417.873 152.158L427.15 129.794C427.465 129.034 427.964 128.363 428.601 127.841C429.238 127.32 429.993 126.963 430.801 126.804L447.893 123.434V96.673ZM406.714 110.054C406.714 142.517 380.303 168.928 347.84 168.928C315.377 168.928 288.966 142.517 288.966 110.054C288.966 77.591 315.377 51.18 347.84 51.18C380.303 51.18 406.714 77.591 406.714 110.054ZM396.714 110.054C396.714 83.105 374.789 61.18 347.84 61.18C320.891 61.18 298.966 83.105 298.966 110.054C298.966 137.003 320.89 158.928 347.84 158.928C374.79 158.928 396.714 137.004 396.714 110.054Z" fill="url(#paint0_linear_2178_233)"/>
<defs>
<linearGradient id="paint0_linear_2178_233" x1="229" y1="500.001" x2="229" y2="0.00101328" gradientUnits="userSpaceOnUse">
<stop stop-color="#2B2F60"/>
<stop offset="1" stop-color="#8F2946"/>
</linearGradient>
</defs>
</svg>
