<svg width="476" height="476" viewBox="0 0 476 476" fill="none" xmlns="http://www.w3.org/2000/svg">
<path d="M468 190.329H430.91L284.871 44.29V7.2C284.871 5.29044 284.112 3.45909 282.762 2.10883C281.412 0.758569 279.581 0 277.671 0H197.529C195.619 0 193.788 0.758569 192.438 2.10883C191.088 3.45909 190.329 5.29044 190.329 7.2V44.29L44.29 190.329H7.2C5.29044 190.329 3.45909 191.088 2.10883 192.438C0.758569 193.788 0 195.619 0 197.529V277.671C0 279.581 0.758569 281.412 2.10883 282.762C3.45909 284.112 5.29044 284.871 7.2 284.871H44.29L190.329 430.91V468C190.329 469.91 191.088 471.741 192.438 473.091C193.788 474.441 195.619 475.2 197.529 475.2H277.671C279.581 475.2 281.412 474.441 282.762 473.091C284.112 471.741 284.871 469.91 284.871 468V430.91L430.91 284.871H468C469.91 284.871 471.741 284.112 473.091 282.762C474.441 281.412 475.2 279.581 475.2 277.671V197.529C475.2 195.619 474.441 193.788 473.091 192.438C471.741 191.088 469.91 190.329 468 190.329ZM410.548 190.329H387.861C385.951 190.329 384.12 191.088 382.77 192.438C381.42 193.788 380.661 195.619 380.661 197.529V230.4H324.939V184.732C324.912 183.366 324.509 182.035 323.775 180.883C323.04 179.731 322.003 178.805 320.776 178.204L244.8 142.85V94.539H277.671C278.617 94.539 279.553 94.3528 280.426 93.9909C281.3 93.6291 282.094 93.0987 282.762 92.4302C283.431 91.7616 283.961 90.9679 284.323 90.0943C284.685 89.2208 284.871 88.2845 284.871 87.339V64.652L410.548 190.329ZM237.6 155.384L299.275 184.084L237.6 207.671L175.925 184.084L237.6 155.384ZM164.661 195.2L230.4 220.337V317.3L164.661 292.159V195.2ZM244.8 220.337L310.539 195.2V292.16L244.8 317.3V220.337ZM204.729 14.4H270.471V80.139H204.729V14.4ZM190.329 64.652V87.339C190.329 88.2845 190.515 89.2208 190.877 90.0943C191.239 90.9679 191.769 91.7616 192.438 92.4302C193.106 93.0987 193.9 93.6291 194.774 93.9909C195.647 94.3528 196.583 94.539 197.529 94.539H230.4V142.85L154.424 178.2C153.197 178.801 152.16 179.727 151.425 180.879C150.691 182.031 150.288 183.362 150.261 184.728V230.4H94.539V197.529C94.539 195.619 93.7804 193.788 92.4302 192.438C91.0799 191.088 89.2486 190.329 87.339 190.329H64.652L190.329 64.652ZM14.4 204.729H80.139V270.471H14.4V204.729ZM64.652 284.871H87.339C88.2845 284.871 89.2208 284.685 90.0943 284.323C90.9679 283.961 91.7616 283.431 92.4302 282.762C93.0987 282.094 93.6291 281.3 93.9909 280.426C94.3528 279.553 94.539 278.617 94.539 277.671V244.8H150.261V297.109C150.261 298.567 150.703 299.99 151.529 301.191C152.356 302.391 153.527 303.313 154.888 303.834L230.4 332.714V380.661H197.529C195.619 380.661 193.788 381.42 192.438 382.77C191.088 384.12 190.329 385.951 190.329 387.861V410.548L64.652 284.871ZM270.471 460.8H204.729V395.061H270.471V460.8ZM284.871 410.548V387.861C284.871 385.951 284.112 384.12 282.762 382.77C281.412 381.42 279.581 380.661 277.671 380.661H244.8V332.714L320.312 303.834C321.673 303.313 322.844 302.391 323.671 301.191C324.497 299.99 324.939 298.567 324.939 297.109V244.8H380.661V277.671C380.661 279.581 381.42 281.412 382.77 282.762C384.12 284.112 385.951 284.871 387.861 284.871H410.548L284.871 410.548ZM460.8 270.471H395.061V204.729H460.8V270.471Z" fill="url(#paint0_linear_2178_230)"/>
<defs>
<linearGradient id="paint0_linear_2178_230" x1="97.273" y1="377.927" x2="377.927" y2="97.273" gradientUnits="userSpaceOnUse">
<stop stop-color="#162955"/>
<stop offset="1" stop-color="#8E2844"/>
</linearGradient>
</defs>
</svg>
