<svg width="496" height="494" viewBox="0 0 496 494" fill="none" xmlns="http://www.w3.org/2000/svg">
<path d="M248 150C274.472 150 296 128.472 296 102C296 75.5281 274.472 54.0001 248 54.0001C221.528 54.0001 200 75.5281 200 102C200 128.472 221.528 150 248 150ZM248 70.0001C265.648 70.0001 280 84.3521 280 102C280 119.648 265.648 134 248 134C230.352 134 216 119.648 216 102C216 84.3521 230.352 70.0001 248 70.0001ZM480 478H496V494H480V478ZM16 494H4.15565e-05V478H16V494ZM320 446V462H288V446H320ZM192 430H160V414H192V430ZM192 462H160V446H192V462ZM318.992 42.0561L324.88 27.2641L300.76 32.0881C293.158 33.5792 285.29 32.9035 278.053 30.1382C270.816 27.3728 264.502 22.629 259.832 16.4481L248 0.664062L236.168 16.4481C231.498 22.6297 225.185 27.374 217.948 30.1395C210.711 32.905 202.842 33.5802 195.24 32.0881L171.12 27.2641L177.008 42.0481C145.301 53.0284 116.599 71.2671 93.1917 95.309C69.7846 119.351 52.3203 148.531 42.192 180.52C20.12 190.68 3.76004 211.784 0.600042 236.576C-2.97596 264.64 9.54404 291.496 33.272 306.664C37.424 309.32 40 314.424 40 320V334C40 350.344 52.368 363.712 68.208 365.616C84.0442 389.294 104.356 409.649 128 425.536V478H32V494H464V478H352V435.248C385.163 416.997 412.953 390.36 432.592 358H480V342H464V326H496V182H454.24C434.072 117.104 383.128 64.4481 318.992 42.0561ZM400 310V262H432V310H400ZM352 262H384V310H352V262ZM352 246V198H384V246H352ZM400 246V198H432V246H400ZM195.288 48.3201C205.143 49.6795 215.181 48.4567 224.421 44.7713C233.661 41.086 241.786 35.0644 248 27.2961C254.214 35.0663 262.34 41.0891 271.582 44.7746C280.824 48.46 290.864 49.6818 300.72 48.3201C299.079 58.2805 300.124 68.4984 303.748 77.9202C307.372 87.342 313.443 95.6267 321.336 101.92C313.444 108.022 307.288 116.084 303.479 125.303C299.669 134.523 298.34 144.579 299.624 154.472C289.83 153.378 279.92 154.851 270.867 158.746C261.815 162.641 253.932 168.824 247.992 176.688C241.775 168.924 233.65 162.906 224.41 159.224C215.17 155.541 205.133 154.32 195.28 155.68C196.926 145.699 195.874 135.458 192.232 126.02C188.591 116.582 182.492 108.289 174.568 102C182.491 95.7103 188.59 87.4175 192.233 77.9798C195.876 68.542 196.931 58.3022 195.288 48.3201ZM41.896 293.184C23.424 281.384 13.688 260.472 16.48 238.6C19.672 213.504 40.272 193.216 65.44 190.368C67.664 190.12 69.872 190 72.064 190C85.8075 189.956 99.0758 195.027 109.288 204.224C115.171 209.479 119.878 215.916 123.103 223.115C126.327 230.314 127.996 238.112 128 246C128.014 255.383 125.66 264.618 121.157 272.85C116.655 281.083 110.148 288.046 102.24 293.096C93.784 298.528 88.616 307.76 88.096 318H80V268.528C84.6659 266.883 88.7085 263.835 91.5732 259.802C94.4378 255.768 95.9842 250.947 96 246C96 232.768 85.232 222 72 222C58.768 222 48 232.768 48 246C48 256.416 54.712 265.216 64 268.528V318H55.88C55.288 307.672 50.192 298.488 41.896 293.184ZM64 246C64 241.592 67.592 238 72 238C76.408 238 80 241.592 80 246C80 250.408 76.408 254 72 254C67.592 254 64 250.408 64 246ZM56 334H88C88 342.824 80.824 350 72 350C63.176 350 56 342.824 56 334ZM288 350V386.64L256 380.24V478H224V364.24L208 367.44V350H288ZM208 383.76V478H144V396.56L208 383.76ZM272 478V399.76L336 412.56V478H272ZM352 416.808V399.44L304 389.84V334H288V318H272V334H256V302H240V334H224V318H208V334H192V370.64L128 383.44V405.912C111.814 393.742 97.5438 379.216 85.664 362.816C91.1335 360.24 95.7598 356.164 99.0055 351.064C102.251 345.963 103.983 340.046 104 334V319.664C104 314.312 106.64 309.288 110.896 306.552C121.062 300.058 129.425 291.105 135.212 280.52C140.998 269.936 144.021 258.063 144 246C143.993 235.861 141.848 225.837 137.704 216.583C133.561 207.329 127.511 199.053 119.952 192.296C112.348 185.53 103.402 180.445 93.6984 177.374C83.9947 174.302 73.7521 173.314 63.64 174.472C62.768 174.568 61.92 174.752 61.056 174.88C71.2523 147.964 87.1565 123.576 107.675 103.391C128.194 83.2066 152.84 67.705 179.92 57.9521C179.86 64.9557 178 71.8263 174.517 77.9027C171.034 83.9792 166.045 89.0571 160.032 92.6481L144.456 102L160.04 111.352C168.44 116.351 174.772 124.193 177.89 133.457C181.009 142.721 180.707 152.795 177.04 161.856L171.12 176.736L195.24 171.912C202.842 170.422 210.71 171.098 217.947 173.863C225.183 176.629 231.497 181.372 236.168 187.552L248 203.336L260.576 186.576C265.067 180.563 271.124 175.9 278.085 173.096C285.045 170.291 292.643 169.453 300.048 170.672L322.528 174.336L317.728 161.44C314.387 152.451 314.294 142.578 317.464 133.527C320.635 124.477 326.869 116.82 335.088 111.88L351.552 102L335.968 92.6481C329.96 89.0564 324.975 83.9803 321.494 77.9072C318.013 71.8341 316.151 64.9679 316.088 57.9681C372.816 78.5841 418.112 124.864 437.48 182H336V326H368V342H352V358H413.728C397.612 381.806 376.559 401.863 352 416.808ZM448 342H384V326H448V342ZM448 310V262H480V310H448ZM480 246H448V198H480V246ZM192 222H304V238H192V222ZM288 254H304V270H288V254ZM192 254H208V270H192V254ZM224 254H240V270H224V254ZM256 254H272V270H256V254Z" fill="url(#paint0_linear_2178_236)"/>
<defs>
<linearGradient id="paint0_linear_2178_236" x1="248" y1="494" x2="248" y2="0.672061" gradientUnits="userSpaceOnUse">
<stop stop-color="#902A47"/>
<stop offset="1" stop-color="#242C5B"/>
</linearGradient>
</defs>
</svg>
